<svg width="17" height="17" viewBox="0 0 17 17" fill="none" xmlns="http://www.w3.org/2000/svg">
<path d="M1.49414 2.67648H15.5059C16.3297 2.67648 17 3.34675 17 4.17062V12.8294C17 13.6533 16.3297 14.3235 15.5059 14.3235H1.49414C0.670271 14.3235 0 13.6533 0 12.8294V4.17062C0 3.34675 0.670271 2.67648 1.49414 2.67648ZM1.68914 3.67258L1.88856 3.83863L7.90719 8.85034C8.25071 9.13635 8.74936 9.13635 9.09281 8.85034L15.1114 3.83863L15.3109 3.67258H1.68914ZM16.0039 4.39169L11.1001 8.47511L16.0039 11.7387V4.39169ZM1.49414 13.3274H15.5059C15.7465 13.3274 15.9478 13.1559 15.9939 12.9286L10.3014 9.14014L9.73018 9.6158C9.37377 9.91257 8.93685 10.061 8.49997 10.061C8.06308 10.061 7.62619 9.91257 7.26976 9.6158L6.69853 9.14014L1.00605 12.9286C1.05221 13.1559 1.25348 13.3274 1.49414 13.3274ZM0.996094 11.7387L5.89993 8.47514L0.996094 4.39169V11.7387Z" fill="#000842"/>
</svg>
