<svg width="17" height="17" viewBox="0 0 17 17" fill="none" xmlns="http://www.w3.org/2000/svg">
<path d="M13.0033 7.2296V4.53742C13.0105 3.31927 12.524 2.14798 11.6554 1.29383C10.8157 0.457706 9.7165 0 8.55242 0C8.5344 0 8.51277 0 8.49475 0C6.01161 0.00360399 3.99338 2.03625 3.99338 4.53742V7.2296C3.05634 7.34132 2.37158 8.12699 2.37158 9.07844V15.1259C2.37158 16.1531 3.19329 17 4.22043 17H12.7799C13.807 17 14.6287 16.1531 14.6287 15.1259V9.07844C14.6251 8.13059 13.9404 7.34132 13.0033 7.2296ZM4.71057 4.53742H4.71417C4.71417 2.43269 6.41165 0.709985 8.49836 0.709985H8.50196C9.49306 0.706381 10.4445 1.09922 11.1473 1.79839C11.8789 2.52279 12.2861 3.51028 12.2789 4.53742V7.2332H11.4861V4.53742C11.4933 3.71931 11.1689 2.93364 10.5887 2.35701C10.0409 1.8092 9.29844 1.49926 8.52359 1.49926H8.50196C6.84413 1.49926 5.50345 2.86156 5.50345 4.53381V7.2332H4.71057V4.53742ZM10.7689 4.53742V7.2332H6.22785V4.53742C6.22785 3.26161 7.24417 2.22366 8.50557 2.22366H8.52719C9.11104 2.22366 9.67326 2.45792 10.0877 2.87238C10.5274 3.31206 10.7761 3.91393 10.7689 4.53742ZM13.9404 15.1367C13.9404 15.7674 13.4286 16.2792 12.7979 16.2792H4.23484C3.60414 16.2792 3.09238 15.7674 3.09238 15.1367V9.09646C3.09238 8.46576 3.60414 7.954 4.23484 7.954H12.7979C13.4286 7.954 13.9404 8.46576 13.9404 9.09646V15.1367Z" fill="#000842"/>
<path d="M9.74528 11.8932C9.58671 11.3346 9.07855 10.9525 8.49831 10.9525C7.78111 10.9525 7.19727 11.5328 7.19727 12.2536C7.19727 12.8338 7.57929 13.342 8.13791 13.5005V14.5097C8.13791 14.7079 8.30009 14.8701 8.49831 14.8701C8.69652 14.8701 8.8587 14.7079 8.8587 14.5097V13.5005C9.54707 13.3023 9.94711 12.5815 9.74528 11.8932ZM8.49831 12.8302C8.17755 12.8302 7.91806 12.5707 7.91806 12.25C7.91806 11.9292 8.17755 11.6697 8.49831 11.6697C8.81906 11.6697 9.07855 11.9292 9.07855 12.25C9.07855 12.5707 8.81906 12.8302 8.49831 12.8302Z" fill="#000842"/>
</svg>
