<svg width="272" height="48" viewBox="0 0 272 48" fill="none" xmlns="http://www.w3.org/2000/svg">
<rect width="48" height="48" fill="#F5F7FA"/>
<g clip-path="url(#clip0_2802_16924)">
<path d="M27.3312 17.3208H29.1571V14.1408C28.8421 14.0975 27.7587 14 26.4971 14C23.8646 14 22.0613 15.6558 22.0613 18.6992V21.5H19.1562V25.055H22.0613V34H25.6229V25.0558H28.4104L28.8529 21.5008H25.6221V19.0517C25.6229 18.0242 25.8996 17.3208 27.3312 17.3208Z" fill="#4E5566"/>
</g>
<rect width="48" height="48" transform="translate(56)" fill="#F5F7FA"/>
<g clip-path="url(#clip1_2802_16924)">
<path d="M90 17.7988C89.2563 18.125 88.4637 18.3412 87.6375 18.4462C88.4875 17.9388 89.1363 17.1412 89.4412 16.18C88.6488 16.6525 87.7738 16.9863 86.8412 17.1725C86.0887 16.3713 85.0162 15.875 83.8462 15.875C81.5763 15.875 79.7487 17.7175 79.7487 19.9763C79.7487 20.3012 79.7762 20.6137 79.8438 20.9112C76.435 20.745 73.4188 19.1113 71.3925 16.6225C71.0387 17.2363 70.8313 17.9388 70.8313 18.695C70.8313 20.115 71.5625 21.3737 72.6525 22.1025C71.9937 22.09 71.3475 21.8988 70.8 21.5975C70.8 21.61 70.8 21.6262 70.8 21.6425C70.8 23.635 72.2212 25.29 74.085 25.6712C73.7512 25.7625 73.3875 25.8062 73.01 25.8062C72.7475 25.8062 72.4825 25.7913 72.2337 25.7362C72.765 27.36 74.2725 28.5538 76.065 28.5925C74.67 29.6838 72.8988 30.3412 70.9813 30.3412C70.645 30.3412 70.3225 30.3263 70 30.285C71.8162 31.4563 73.9688 32.125 76.29 32.125C83.835 32.125 87.96 25.875 87.96 20.4575C87.96 20.2762 87.9538 20.1013 87.945 19.9275C88.7588 19.35 89.4425 18.6288 90 17.7988Z" fill="#4E5566"/>
</g>
<rect width="48" height="48" transform="translate(112)" fill="#F5F7FA"/>
<g clip-path="url(#clip2_2802_16924)">
<path d="M145.98 19.8801C145.934 18.8174 145.762 18.0868 145.516 17.4537C145.262 16.7818 144.871 16.1801 144.359 15.68C143.859 15.1721 143.253 14.7774 142.589 14.5274C141.952 14.2813 141.226 14.1094 140.163 14.0626C139.092 14.0118 138.752 14 136.037 14C133.322 14 132.982 14.0118 131.915 14.0586C130.853 14.1055 130.122 14.2775 129.489 14.5235C128.817 14.7774 128.215 15.1681 127.715 15.68C127.207 16.1801 126.813 16.7857 126.563 17.4499C126.316 18.0868 126.145 18.8134 126.098 19.8761C126.047 20.9467 126.035 21.2866 126.035 24.002C126.035 26.7173 126.047 27.0572 126.094 28.1239C126.141 29.1865 126.313 29.9171 126.559 30.5502C126.813 31.2221 127.207 31.8238 127.715 32.3239C128.215 32.8318 128.821 33.2265 129.485 33.4765C130.122 33.7226 130.849 33.8945 131.911 33.9413C132.978 33.9883 133.318 33.9999 136.033 33.9999C138.749 33.9999 139.089 33.9883 140.155 33.9413C141.218 33.8945 141.948 33.7226 142.581 33.4765C143.925 32.9568 144.988 31.8941 145.508 30.5502C145.754 29.9133 145.926 29.1865 145.973 28.1239C146.02 27.0572 146.031 26.7173 146.031 24.002C146.031 21.2866 146.027 20.9467 145.98 19.8801ZM144.179 28.0457C144.136 29.0225 143.972 29.5499 143.836 29.9015C143.499 30.7728 142.808 31.4643 141.937 31.8004C141.585 31.9372 141.054 32.1012 140.081 32.1441C139.026 32.1911 138.71 32.2027 136.041 32.2027C133.373 32.2027 133.052 32.1911 132.001 32.1441C131.024 32.1012 130.497 31.9372 130.145 31.8004C129.712 31.6402 129.317 31.3862 128.997 31.0541C128.665 30.7298 128.411 30.3391 128.25 29.9055C128.114 29.5539 127.95 29.0225 127.907 28.0497C127.86 26.9948 127.848 26.6783 127.848 24.0097C127.848 21.3412 127.86 21.0209 127.907 19.9699C127.95 18.9932 128.114 18.4657 128.25 18.1141C128.411 17.6804 128.665 17.2859 129.001 16.9654C129.325 16.6333 129.716 16.3793 130.149 16.2192C130.501 16.0825 131.032 15.9184 132.005 15.8754C133.06 15.8285 133.377 15.8168 136.045 15.8168C138.717 15.8168 139.034 15.8285 140.085 15.8754C141.062 15.9184 141.589 16.0825 141.941 16.2192C142.374 16.3793 142.769 16.6333 143.089 16.9654C143.421 17.2897 143.675 17.6804 143.836 18.1141C143.972 18.4657 144.136 18.997 144.179 19.9699C144.226 21.0248 144.238 21.3412 144.238 24.0097C144.238 26.6783 144.226 26.9908 144.179 28.0457Z" fill="#4E5566"/>
<path d="M136.036 18.8643C133.2 18.8643 130.898 21.1654 130.898 24.002C130.898 26.8385 133.2 29.1397 136.036 29.1397C138.873 29.1397 141.174 26.8385 141.174 24.002C141.174 21.1654 138.873 18.8643 136.036 18.8643ZM136.036 27.3347C134.196 27.3347 132.703 25.8423 132.703 24.002C132.703 22.1617 134.196 20.6693 136.036 20.6693C137.876 20.6693 139.369 22.1617 139.369 24.002C139.369 25.8423 137.876 27.3347 136.036 27.3347Z" fill="#4E5566"/>
<path d="M142.577 18.6611C142.577 19.3235 142.04 19.8605 141.377 19.8605C140.715 19.8605 140.178 19.3235 140.178 18.6611C140.178 17.9986 140.715 17.4617 141.377 17.4617C142.04 17.4617 142.577 17.9986 142.577 18.6611Z" fill="#4E5566"/>
</g>
<rect width="48" height="48" transform="translate(168)" fill="#F5F7FA"/>
<g clip-path="url(#clip3_2802_16924)">
<path d="M201.588 19.199C201.357 18.3422 200.682 17.6668 199.825 17.4361C198.26 17.0078 192 17.0078 192 17.0078C192 17.0078 185.74 17.0078 184.175 17.4198C183.334 17.6504 182.642 18.3423 182.412 19.199C182 20.7639 182 24.0094 182 24.0094C182 24.0094 182 27.2713 182.412 28.8199C182.643 29.6765 183.318 30.352 184.175 30.5827C185.756 31.011 192 31.011 192 31.011C192 31.011 198.26 31.011 199.825 30.5991C200.682 30.3685 201.357 29.693 201.588 28.8364C202 27.2713 202 24.0259 202 24.0259C202 24.0259 202.016 20.7639 201.588 19.199Z" fill="#4E5566"/>
<path d="M190.006 27.0078L195.212 24.0095L190.006 21.0111V27.0078Z" fill="#F4F4F4"/>
</g>
<rect width="48" height="48" transform="translate(224)" fill="#F5F7FA"/>
<g clip-path="url(#clip4_2802_16924)">
<path fill-rule="evenodd" clip-rule="evenodd" d="M254.633 17.3401C252.879 15.5839 250.546 14.6163 248.061 14.6152C242.939 14.6152 238.771 18.7831 238.769 23.9057C238.769 25.5432 239.196 27.1417 240.01 28.5507L238.691 33.3652L243.617 32.0732C244.974 32.8135 246.502 33.2036 248.057 33.2041H248.061C253.181 33.2041 257.35 29.0359 257.352 23.9131C257.353 21.4304 256.387 19.0962 254.633 17.3401ZM248.061 31.635H248.057C246.672 31.6344 245.313 31.262 244.127 30.5586L243.845 30.3911L240.922 31.1579L241.702 28.3082L241.519 28.016C240.746 26.7865 240.337 25.3654 240.338 23.9062C240.34 19.6485 243.804 16.1844 248.064 16.1844C250.126 16.1851 252.065 16.9894 253.523 18.4491C254.981 19.9088 255.784 21.849 255.783 23.9125C255.781 28.1706 252.317 31.635 248.061 31.635ZM252.296 25.8513C252.064 25.735 250.923 25.1736 250.71 25.096C250.497 25.0185 250.343 24.9799 250.188 25.2122C250.033 25.4445 249.588 25.9675 249.453 26.1224C249.317 26.2773 249.182 26.2968 248.95 26.1805C248.718 26.0644 247.97 25.8191 247.083 25.0282C246.393 24.4126 245.927 23.6524 245.791 23.4201C245.656 23.1875 245.79 23.074 245.893 22.9463C246.144 22.6342 246.396 22.307 246.474 22.1522C246.551 21.9972 246.512 21.8616 246.454 21.7455C246.396 21.6293 245.932 20.4866 245.738 20.0217C245.55 19.5692 245.359 19.6303 245.216 19.6232C245.081 19.6164 244.926 19.615 244.771 19.615C244.616 19.615 244.365 19.6731 244.152 19.9056C243.939 20.138 243.34 20.6996 243.34 21.8423C243.34 22.985 244.171 24.0889 244.287 24.2438C244.403 24.3988 245.925 26.7437 248.253 27.7492C248.807 27.9886 249.24 28.1313 249.577 28.2383C250.133 28.415 250.639 28.39 251.039 28.3303C251.485 28.2636 252.412 27.7686 252.606 27.2264C252.799 26.6841 252.799 26.2193 252.741 26.1224C252.683 26.0256 252.529 25.9675 252.296 25.8513Z" fill="#4E5566"/>
</g>
<defs>
<clipPath id="clip0_2802_16924">
<rect width="20" height="20" fill="white" transform="translate(14 14)"/>
</clipPath>
<clipPath id="clip1_2802_16924">
<rect width="20" height="20" fill="white" transform="translate(70 14)"/>
</clipPath>
<clipPath id="clip2_2802_16924">
<rect width="20" height="20" fill="white" transform="translate(126 14)"/>
</clipPath>
<clipPath id="clip3_2802_16924">
<rect width="20" height="20" fill="white" transform="translate(182 14)"/>
</clipPath>
<clipPath id="clip4_2802_16924">
<rect width="20" height="20" fill="white" transform="translate(238 14)"/>
</clipPath>
</defs>
</svg>
